<?xml version="1.0" standalone="no"?>
<!DOCTYPE svg PUBLIC "-//W3C//DTD SVG 20010904//EN"
 "http://www.w3.org/TR/2001/REC-SVG-20010904/DTD/svg10.dtd">
<svg version="1.0" xmlns="http://www.w3.org/2000/svg"
 width="243.000000pt" height="244.000000pt" viewBox="0 0 243.000000 244.000000"
 preserveAspectRatio="xMidYMid meet">

<g transform="translate(0.000000,244.000000) scale(0.100000,-0.100000)"
fill="#000000" stroke="none">
<path d="M120 1230 l0 -1100 988 -1 c543 0 1034 -1 1092 -2 l105 -2 -1 35 c-1
19 -2 515 -3 1103 l-1 1067 -1090 0 -1090 0 0 -1100z m475 638 c15 -14 28 -38
32 -60 5 -35 3 -37 -35 -57 -54 -28 -62 -27 -62 9 0 28 -3 30 -35 30 l-35 0 0
-80 c0 -90 -9 -87 97 -32 34 17 65 32 68 32 3 0 5 -81 5 -181 0 -238 -5 -248
-133 -249 -70 0 -81 3 -102 25 -19 18 -25 35 -25 69 0 43 2 47 40 66 21 11 42
20 45 20 3 0 5 -20 5 -45 0 -45 0 -45 35 -45 l35 0 0 90 c0 50 -2 90 -5 90 -3
0 -37 -16 -75 -35 -38 -19 -72 -35 -75 -35 -10 0 -5 351 6 371 15 28 44 38
121 38 56 1 71 -3 93 -21z m337 -6 c23 -22 23 -26 23 -283 l0 -261 -24 -19
c-18 -15 -39 -19 -103 -19 -70 0 -82 3 -103 25 l-25 24 0 251 c0 159 4 259 11
271 16 30 47 39 126 36 60 -2 77 -6 95 -25z m324 5 c20 -18 28 -35 31 -73 l5
-49 -46 -23 c-26 -12 -49 -22 -51 -22 -3 0 -5 20 -5 45 0 45 0 45 -35 45 l-35
0 0 -210 0 -210 35 0 c33 0 35 2 35 35 0 32 4 37 50 60 l50 25 0 -70 c0 -74
-17 -123 -45 -134 -9 -3 -50 -6 -91 -6 -66 0 -78 3 -99 25 l-25 24 0 253 c0
316 -5 304 137 307 51 1 66 -3 89 -22z m184 -282 l0 -305 -45 0 -45 0 0 305 0
305 45 0 45 0 0 -305z m311 276 c18 -22 19 -43 19 -302 l0 -279 -45 0 -45 0 0
125 c0 69 -3 125 -6 125 -3 0 -19 -8 -35 -17 l-29 -17 0 -108 0 -108 -50 0
-51 0 3 281 3 281 29 25 c27 23 36 25 109 21 68 -3 81 -6 98 -27z m187 -233
l2 -258 65 0 65 0 0 -45 0 -45 -115 0 -115 0 0 306 0 305 48 -3 47 -3 3 -257z
m-1062 -483 c5 -13 10 -13 36 1 20 10 42 14 64 9 63 -11 64 -19 64 -327 l0
-278 -45 0 -45 0 0 260 0 260 -35 0 -35 0 0 -260 0 -260 -50 0 -50 0 0 298 c0
164 3 302 7 305 13 14 84 7 89 -8z m464 -30 l0 -45 -65 0 -65 0 0 -80 0 -80
60 30 c33 16 62 30 65 30 3 0 5 -23 5 -50 l0 -50 -65 -32 -65 -32 0 -78 0 -78
65 0 65 0 0 -50 0 -50 -115 0 -115 0 0 276 0 276 29 29 c28 28 34 29 115 29
l86 0 0 -45z m320 0 l0 -45 -45 0 -45 0 0 -260 0 -260 -50 0 -50 0 0 260 0
260 -45 0 -45 0 0 45 0 45 140 0 140 0 0 -45z"/>
<path d="M790 1580 l0 -210 35 0 35 0 0 210 0 210 -35 0 -35 0 0 -210z"/>
<path d="M1610 1700 c0 -49 2 -90 5 -90 4 0 19 7 35 15 29 15 30 18 30 90 l0
75 -35 0 -35 0 0 -90z"/>
</g>
</svg>
